<svg width="245" height="161" viewBox="0 0 245 161" fill="none" xmlns="http://www.w3.org/2000/svg">
<g clip-path="url(#clip0_1_91)">
<path d="M245 0H0V161H245V0Z" fill="white"/>
<path d="M245 0H0V161H245V0Z" fill="#EBE9DC"/>
<path d="M158.04 16.5902H-9.07407V183.246H158.04V16.5902Z" fill="#EBE9DC"/>
<path d="M18.5834 151.798C18.5834 151.798 2.51534 145.89 5.8827 129.016C8.55653 115.6 21.1402 112.184 31.2339 114.175C43.3163 116.559 47.561 103.843 46.8506 97.2182C46.1406 90.5934 52.1733 81.3357 67.8987 80.6442C82.3877 80.0025 89.8908 98.0262 94.9462 104.176C102.7 113.617 114.423 106.459 123.531 100.668C133.525 94.3183 143.752 106.017 143.752 125.408C143.752 144.798 128.879 152.381 128.879 152.381L18.5834 151.798Z" fill="white"/>
<path d="M112.209 100.526C112.209 100.526 118.868 96.6434 115.835 91.7353C112.802 86.8273 107.179 89.6103 104.823 92.0521C102.466 94.4935 100.586 98.385 104.096 101.393C107.38 104.21 112.209 100.526 112.209 100.526Z" fill="white"/>
<path d="M32.8382 99.2094C32.8382 99.2094 26.6884 97.0931 25.2094 101.726C23.7221 106.359 28.6018 108.417 31.4595 108.584C34.3172 108.742 37.8517 107.809 37.8517 103.918C37.8517 100.268 32.8382 99.2094 32.8382 99.2094Z" fill="white"/>
<path d="M88.9135 96.5933L79.9309 96.6016L79.7804 96.4516C79.7222 96.3935 73.5053 90.202 67.9573 82.4612C64.6902 77.903 62.2837 73.703 60.8046 69.9703C58.9414 65.2538 58.5569 61.254 59.6768 58.1041C60.8383 54.8461 63.069 52.4295 66.3194 50.9462C68.6257 49.8882 71.3831 49.3132 74.508 49.2465L101.029 49.2382C101.464 49.2382 111.549 49.3381 115.367 58.0793C116.713 61.1541 116.47 65.1037 114.649 69.8202C113.22 73.5364 110.814 77.7446 107.488 82.336C101.856 90.1186 95.4392 96.4018 95.3723 96.4685L95.2218 96.6099L88.9135 96.5933Z" fill="#848418"/>
<path d="M101.021 49.7379C101.272 49.7379 111.19 49.7876 114.891 58.2788C120.54 71.2112 95.0131 96.1096 95.0131 96.1096L88.9135 96.1013L80.14 96.1096C80.14 96.1096 55.4237 71.5698 60.1445 58.2788C62.6512 51.2212 69.8541 49.8544 74.508 49.7462L101.021 49.7379ZM101.021 48.7379L74.508 48.7462H74.4997H74.4913C71.2995 48.8213 68.4752 49.4046 66.1024 50.4961C62.7264 52.0458 60.4038 54.5543 59.2004 57.9455C58.0389 61.2119 58.4234 65.3202 60.3452 70.1698C61.8409 73.9361 64.2641 78.1693 67.5561 82.7689C73.1295 90.5436 79.3713 96.768 79.4295 96.8264L79.7222 97.1179H80.14L88.9135 97.1096L95.0131 97.1179H95.4226L95.7149 96.8347C95.7818 96.768 102.224 90.4599 107.881 82.6358C111.223 78.0109 113.655 73.7612 115.1 70.0114C116.963 65.1618 117.206 61.0871 115.811 57.8874C114.9 55.8042 113.563 54.0291 111.833 52.6042C110.455 51.4712 108.825 50.5546 107.003 49.8962C103.92 48.7711 101.313 48.7379 101.021 48.7379Z" fill="#747B2B"/>
<g opacity="0.4">
<g opacity="0.4">
<path opacity="0.4" d="M62.9023 58.2707C65.409 51.213 72.6115 49.8462 77.2658 49.738L101.088 49.7297C101.038 49.7297 101.013 49.7297 101.013 49.7297L74.508 49.738C69.8542 49.8462 62.6516 51.2044 60.1449 58.2707C55.4237 71.5616 80.14 96.1015 80.14 96.1015H82.8974C82.6048 95.8101 58.2144 71.4866 62.9023 58.2707Z" fill="#EFF2BD"/>
</g>
<g opacity="0.4">
<path opacity="0.4" d="M91.6709 96.0933H90.0413L95.0132 96.1016C95.0132 96.1016 95.0132 96.1016 95.0215 96.0933H91.6709Z" fill="#EFF2BD"/>
</g>
</g>
<path d="M105.642 65.0539C105.591 65.9037 105.399 67.3701 104.789 69.5453C103.745 73.2283 101.89 77.5696 99.2829 82.4524C96.3584 87.9106 93.1579 92.7685 91.0943 95.7434L88.8383 95.7351H88.8129L84.1171 95.7434C82.1371 92.8435 79.1203 88.1854 76.2881 82.869C73.6558 77.9278 71.759 73.5031 70.6394 69.7202C69.2273 64.9204 69.6368 63.0623 69.6954 62.8704C69.9543 61.8957 70.3385 61.1205 71.4164 60.4539C72.4527 59.8125 73.9314 59.429 75.5859 59.3706L99.968 59.3623C100.135 59.3706 101.422 59.4709 102.792 60.2039C104.597 61.1789 105.224 62.5122 105.566 63.5705C105.633 63.7621 105.691 64.2703 105.642 65.0539Z" fill="#9FA52D"/>
<path d="M94.6536 150.965C92.9575 150.957 91.2448 150.898 89.5819 150.848C87.9943 150.798 86.3482 150.74 84.7273 150.732C84.5768 150.732 84.4263 150.732 84.2675 150.732C82.9473 150.732 81.7276 150.773 80.5324 150.865L79.9895 150.907V63.3874C79.9895 63.1204 80.0061 62.8538 80.0311 62.5707C79.9978 60.9875 80.0228 59.7541 80.0228 59.6708C80.0228 53.9295 83.6157 49.2631 88.0359 49.2631H93.818C96.4336 49.2631 100.553 50.6963 103.828 52.7463C106.201 54.2296 110.187 57.321 110.187 61.3622C110.187 64.4955 108.199 67.0538 105.758 67.0538H95.1636V150.965H94.6536Z" fill="#BCC745"/>
<path d="M93.8183 49.7629C98.656 49.7629 109.686 54.9876 109.686 61.362C109.686 64.2118 107.914 66.5536 105.758 66.5536H94.6622V150.465C91.3532 150.448 88.0529 150.256 84.7356 150.231C84.5851 150.231 84.4263 150.231 84.2758 150.231C83.0142 150.231 81.7608 150.273 80.4991 150.364V63.3872C80.4991 63.1202 80.5158 62.8537 80.5411 62.5954C80.5074 60.9371 80.5328 59.6789 80.5328 59.6789C80.5328 54.2294 83.9083 49.7712 88.0442 49.7712H93.8183V49.7629ZM93.8183 48.7629H88.0359C83.3484 48.7629 79.5301 53.6544 79.5214 59.6623C79.5214 59.7871 79.4964 60.979 79.5301 62.5539C79.5048 62.8371 79.4881 63.1202 79.4881 63.3872V150.364V151.439L80.566 151.356C81.7525 151.265 82.9642 151.223 84.2675 151.223C84.418 151.223 84.5685 151.223 84.7189 151.223C86.3315 151.231 87.9694 151.29 89.5569 151.34C91.2194 151.39 92.9408 151.448 94.6452 151.456L95.6566 151.465V150.456V67.5449H105.75C107.121 67.5449 108.391 66.8617 109.326 65.6201C110.204 64.4618 110.68 62.9536 110.68 61.3537C110.68 58.179 108.34 54.9711 104.087 52.3129C100.687 50.1961 96.5587 48.7629 93.8183 48.7629Z" fill="#747B2B"/>
<path d="M80.5994 108.276C80.2651 108.276 79.9895 108.001 79.9895 107.668V100.668C79.9895 100.335 80.2651 100.06 80.5994 100.06H82.2871C83.5322 100.06 84.5436 101.068 84.5436 102.31V106.018C84.5436 107.259 83.5322 108.267 82.2871 108.267H80.5994V108.276Z" fill="#848418"/>
<path d="M82.2875 100.56C83.2565 100.56 84.0422 101.343 84.0422 102.31V106.018C84.0422 106.984 83.2565 107.768 82.2875 107.768H80.5993C80.5411 107.768 80.4908 107.718 80.4908 107.659V100.668C80.4908 100.61 80.5411 100.56 80.5993 100.56H82.2875ZM82.2875 99.56H80.5993C79.9895 99.56 79.4881 100.06 79.4881 100.668V107.659C79.4881 108.268 79.9895 108.768 80.5993 108.768H82.2875C83.8081 108.768 85.0448 107.534 85.0448 106.018V102.31C85.0448 100.802 83.8081 99.56 82.2875 99.56Z" fill="#747B2B"/>
<path d="M80.5994 79.2857C80.2651 79.2857 79.9895 79.0109 79.9895 78.6776V71.6863C79.9895 71.353 80.2651 71.0781 80.5994 71.0781H82.2871C83.5322 71.0781 84.5436 72.0864 84.5436 73.328V77.0359C84.5436 78.2775 83.5322 79.2857 82.2871 79.2857H80.5994Z" fill="#848418"/>
<path d="M82.2875 71.5699C83.2565 71.5699 84.0422 72.3531 84.0422 73.3198V77.0277C84.0422 77.9945 83.2565 78.7776 82.2875 78.7776H80.5993C80.5411 78.7776 80.4908 78.7278 80.4908 78.6694V71.6782C80.4908 71.6197 80.5411 71.5699 80.5993 71.5699H82.2875ZM82.2875 70.57H80.5993C79.9895 70.57 79.4881 71.07 79.4881 71.6782V78.6694C79.4881 79.2776 79.9895 79.7775 80.5993 79.7775H82.2875C83.8081 79.7775 85.0448 78.5446 85.0448 77.0277V73.3198C85.0448 71.8116 83.8081 70.57 82.2875 70.57Z" fill="#747B2B"/>
<g opacity="0.4">
<path opacity="0.4" d="M82.3291 64.5369C82.3291 64.2703 82.3457 64.0037 82.3711 63.7454C82.3374 62.0872 82.3627 60.829 82.3627 60.829C82.3627 55.3791 85.7383 50.9212 89.8742 50.9212H95.6566C97.8541 50.9212 101.322 51.9962 104.455 53.7627C100.929 51.3213 96.4502 49.7712 93.8184 49.7712H88.0359C83.9084 49.7712 80.5245 54.2295 80.5245 59.679C80.5245 59.679 80.4992 60.9372 80.5328 62.5954C80.5075 62.8537 80.4908 63.1203 80.4908 63.3872V150.365C81.1007 150.315 81.7192 150.29 82.3291 150.265V64.5369Z" fill="#EFF2BD"/>
</g>
<path d="M54.1953 134.174C50.5021 134.174 47.3772 131.3 47.0763 127.633C47.0596 127.441 47.0513 127.25 47.0513 127.05V123.133C47.0513 122.483 47.1432 121.833 47.3186 121.208C48.1875 118.15 51.0118 116.009 54.1953 116.009H94.052C97.2355 116.009 100.06 118.142 100.929 121.208C101.104 121.833 101.196 122.483 101.196 123.133V127.05C101.196 127.25 101.188 127.441 101.171 127.633C100.87 131.3 97.7455 134.174 94.052 134.174H54.1953Z" fill="#BCC745"/>
<path d="M94.052 116.509C97.0854 116.509 99.6587 118.559 100.444 121.342C100.603 121.908 100.695 122.516 100.695 123.133V127.05C100.695 127.233 100.687 127.416 100.67 127.591C100.394 130.983 97.5198 133.674 94.052 133.674H54.1953C50.7279 133.674 47.8533 130.983 47.5776 127.591C47.561 127.416 47.5527 127.233 47.5527 127.05V123.133C47.5527 122.516 47.6362 121.908 47.8034 121.342C48.5886 118.559 51.1623 116.509 54.1953 116.509H94.052ZM94.052 115.509H54.1953C50.7948 115.509 47.7614 117.792 46.8339 121.067C46.6419 121.742 46.55 122.433 46.55 123.133V127.05C46.55 127.258 46.5583 127.466 46.5749 127.674C46.7337 129.566 47.5943 131.333 49.0064 132.641C50.4269 133.957 52.2735 134.674 54.1953 134.674H94.052C95.9738 134.674 97.8204 133.949 99.2409 132.641C100.653 131.333 101.514 129.574 101.673 127.674C101.689 127.475 101.698 127.258 101.698 127.05V123.133C101.698 122.433 101.597 121.742 101.413 121.067C100.486 117.792 97.4612 115.509 94.052 115.509Z" fill="#747B2B"/>
<path d="M73.7476 120.342C72.6364 120.342 71.734 119.442 71.734 118.334V116.651C71.734 116.45 71.8928 116.292 72.0931 116.292H79.1036C79.3044 116.292 79.4632 116.45 79.4632 116.651V118.334C79.4632 119.442 78.5607 120.342 77.4491 120.342H73.7476Z" fill="#848418"/>
<path d="M79.1119 116.55C79.1705 116.55 79.2208 116.6 79.2208 116.658V118.342C79.2208 119.308 78.4351 120.092 77.4661 120.092H73.7476C72.7786 120.092 71.9929 119.308 71.9929 118.342V116.658C71.9929 116.6 72.0432 116.55 72.1018 116.55H79.1119ZM79.1119 116.042H72.1018C71.7589 116.042 71.4833 116.317 71.4833 116.658V118.342C71.4833 119.583 72.5026 120.6 73.7476 120.6H77.4661C78.7111 120.6 79.7305 119.583 79.7305 118.342V116.658C79.7305 116.317 79.4548 116.042 79.1119 116.042Z" fill="#747B2B"/>
<g opacity="0.4">
<path opacity="0.4" d="M100.453 121.408C99.667 118.625 97.0938 116.575 94.0604 116.575H54.2037C51.1707 116.575 48.597 118.625 47.8117 121.408C47.6529 121.983 47.5611 122.583 47.5611 123.2V124.949C47.5611 124.333 47.6446 123.725 47.8117 123.158C48.597 120.375 51.1707 118.325 54.2037 118.325H94.0604C97.0938 118.325 99.667 120.375 100.453 123.158C100.612 123.725 100.703 124.333 100.703 124.949V123.2C100.695 122.575 100.612 121.975 100.453 121.408Z" fill="#EFF2BD"/>
</g>
<path d="M100.695 123.133V127.05C100.695 127.233 100.686 127.416 100.67 127.591H47.5776C47.561 127.416 47.5523 127.233 47.5523 127.05V123.133C47.5523 122.517 47.6359 121.908 47.803 121.342H100.453C100.611 121.917 100.695 122.517 100.695 123.133Z" fill="#9FA52D"/>
<path d="M56.8442 125.583C56.5935 125.583 56.3848 125.374 56.3848 125.124V122.991C56.3848 121.583 57.5293 120.441 58.9414 120.441H63.6626C65.0747 120.441 66.2192 121.583 66.2192 122.991V125.124C66.2192 125.374 66.0105 125.583 65.7598 125.583H56.8442Z" fill="#848418"/>
<path d="M63.6539 120.758C64.8906 120.758 65.885 121.758 65.885 122.983V125.116C65.885 125.191 65.8264 125.258 65.7428 125.258H56.8442C56.7689 125.258 56.702 125.2 56.702 125.116V122.983C56.702 121.75 57.7047 120.758 58.9331 120.758H63.6539ZM63.6539 120.117H58.9331C57.3455 120.117 56.0589 121.409 56.0589 122.983V125.116C56.0589 125.55 56.4097 125.9 56.8442 125.9H65.7515C66.1859 125.9 66.5368 125.55 66.5368 125.116V122.983C66.5368 121.4 65.2415 120.117 63.6539 120.117Z" fill="#747B2B"/>
<path d="M81.7945 125.508C81.5937 125.508 81.4349 125.35 81.4349 125.15V123.467C81.4349 122.358 82.3374 121.458 83.4486 121.458H87.1671C88.2783 121.458 89.1808 122.358 89.1808 123.467V125.15C89.1808 125.35 89.022 125.508 88.8216 125.508H81.7945Z" fill="#848418"/>
<path d="M87.1587 121.717C88.1278 121.717 88.9134 122.5 88.9134 123.467V125.15C88.9134 125.208 88.8631 125.258 88.8045 125.258H81.7941C81.7358 125.258 81.6855 125.208 81.6855 125.15V123.467C81.6855 122.5 82.4708 121.717 83.4402 121.717H87.1587ZM87.1587 121.208H83.4402C82.1952 121.208 81.1759 122.225 81.1759 123.467V125.15C81.1759 125.492 81.4515 125.766 81.7941 125.766H88.8045C89.1471 125.766 89.4231 125.492 89.4231 125.15V123.467C89.4231 122.225 88.4034 121.208 87.1587 121.208Z" fill="#747B2B"/>
<path d="M37.3252 152.056C27.4821 152.056 18.7588 146.906 15.6003 139.232C15.2911 138.474 15.3663 137.657 15.8176 136.99C16.2771 136.316 17.0208 135.907 17.8229 135.907C18.1906 135.907 18.5415 135.991 18.8841 136.157C21.3073 137.324 24.708 138.274 28.9778 138.974C29.9053 139.124 30.8913 139.265 31.8856 139.399C37.25 140.082 43.776 140.432 51.2708 140.432H51.7222V152.056H37.3252Z" fill="#BCC745"/>
<path d="M17.823 136.366C18.1071 136.366 18.3996 136.432 18.6837 136.566C20.7642 137.566 23.9728 138.615 28.9027 139.424C29.8135 139.574 30.7911 139.716 31.8272 139.849C36.7487 140.474 43.0905 140.882 51.2708 140.882V151.598H37.3169C27.4154 151.598 19.0095 146.348 16.0098 139.057C15.4583 137.699 16.5279 136.366 17.823 136.366ZM17.823 135.458V136.366V135.458C16.8705 135.458 15.9764 135.941 15.4416 136.741C14.9069 137.532 14.815 138.507 15.1826 139.407C15.9597 141.307 17.0961 143.09 18.55 144.707C19.9788 146.299 21.6834 147.69 23.6219 148.848C27.6243 151.248 32.3703 152.515 37.3336 152.515H51.2874H52.1983V151.606V140.891V139.982H51.2874C43.8093 139.982 37.3085 139.641 31.9609 138.957C30.9665 138.832 29.9889 138.691 29.0698 138.541C24.8335 137.849 21.4828 136.907 19.0931 135.766C18.6837 135.558 18.2575 135.458 17.823 135.458Z" fill="#747B2B"/>
<path d="M17.1963 136.416C16.2103 136.757 15.5502 137.874 16.0182 139.007C19.0179 146.299 27.4237 151.548 37.3252 151.548H51.2791V146.632H37.3252C28.5099 146.632 20.8812 142.474 17.1963 136.416Z" fill="#9FA52D"/>
<path d="M87.4261 94.0603C86.181 94.0603 85.17 93.0521 85.17 91.8105V88.1022C85.17 86.8606 86.181 85.8523 87.4261 85.8523H89.1139C89.4481 85.8523 89.7241 86.1272 89.7241 86.4605V93.4518C89.7241 93.7851 89.4481 94.0603 89.1139 94.0603H87.4261Z" fill="#848418"/>
<path d="M89.1139 86.3437C89.1725 86.3437 89.2224 86.3938 89.2224 86.4519V93.4431C89.2224 93.5016 89.1725 93.5517 89.1139 93.5517H87.4261C86.4567 93.5517 85.6714 92.7682 85.6714 91.8019V88.0936C85.6714 87.1272 86.4567 86.3437 87.4261 86.3437H89.1139ZM89.1139 85.3438H87.4261C85.9054 85.3438 84.6687 86.5771 84.6687 88.0936V91.8019C84.6687 93.3183 85.9054 94.5517 87.4261 94.5517H89.1139C89.7237 94.5517 90.2251 94.0517 90.2251 93.4431V86.4519C90.2251 85.8437 89.7237 85.3438 89.1139 85.3438Z" fill="#747B2B"/>
<path d="M46.1738 142.173C43.2077 142.173 40.5086 140.299 39.4726 137.515C39.1804 136.724 39.0299 135.899 39.0299 135.049V131.133C39.0299 131.116 39.0299 131.099 39.0299 131.074C39.0548 127.174 42.2633 124.008 46.1738 124.008H102.742C106.611 124.008 109.819 127.15 109.886 131.007C109.886 131.049 109.886 131.091 109.886 131.133V135.049C109.886 135.882 109.744 136.707 109.452 137.49C108.416 140.29 105.725 142.173 102.742 142.173H46.1738Z" fill="#BCC745"/>
<path d="M102.742 124.508C106.36 124.508 109.326 127.425 109.385 131.024C109.385 131.058 109.385 131.099 109.385 131.133V135.049C109.385 135.841 109.243 136.607 108.984 137.316C108.048 139.849 105.599 141.674 102.742 141.674H46.1738C43.3245 141.674 40.8847 139.865 39.9406 137.341C39.6729 136.624 39.5312 135.849 39.5312 135.049V131.133C39.5312 131.116 39.5312 131.108 39.5312 131.091C39.5561 127.466 42.5309 124.508 46.1738 124.508H102.742ZM102.742 123.508H46.1738C41.9876 123.508 38.5617 126.9 38.5285 131.066C38.5285 131.091 38.5285 131.116 38.5285 131.133V135.049C38.5285 135.958 38.6873 136.841 39.0049 137.69C40.1161 140.674 42.9986 142.674 46.1738 142.674H102.742C105.934 142.674 108.817 140.657 109.92 137.666C110.229 136.824 110.388 135.949 110.388 135.049V131.133C110.388 131.091 110.388 131.049 110.388 130.991C110.354 128.991 109.544 127.116 108.098 125.7C106.661 124.292 104.756 123.508 102.742 123.508Z" fill="#747B2B"/>
<path d="M53.3681 129.333C52.0311 129.333 50.9532 128.25 50.9532 126.925V124.191H60.7797V126.925C60.7797 128.258 59.6934 129.333 58.3648 129.333H53.3681Z" fill="#848418"/>
<path d="M60.4621 124.508V126.916C60.4621 128.066 59.5263 129.008 58.3648 129.008H53.368C52.2149 129.008 51.2708 128.074 51.2708 126.916V124.508H60.4621ZM61.1056 123.866H60.4621H51.2791H50.636V124.508V126.916C50.636 128.424 51.864 129.649 53.3764 129.649H58.3731C59.8855 129.649 61.1139 128.424 61.1139 126.916V124.508V123.866H61.1056Z" fill="#747B2B"/>
<path d="M89.0469 129.333C87.71 129.333 86.632 128.25 86.632 126.925V124.191H96.4585V126.925C96.4585 128.258 95.3722 129.333 94.0436 129.333H89.0469Z" fill="#848418"/>
<path d="M96.141 124.508V126.916C96.141 128.066 95.2052 129.008 94.0437 129.008H89.047C87.8938 129.008 86.9497 128.074 86.9497 126.916V124.508H96.141ZM96.7845 123.866H96.141H86.958H86.3145V124.508V126.916C86.3145 128.424 87.5429 129.649 89.0553 129.649H94.0521C95.5644 129.649 96.7928 128.424 96.7928 126.916V124.508V123.866H96.7845Z" fill="#747B2B"/>
<g opacity="0.4">
<path opacity="0.4" d="M109.385 131.024C109.326 127.433 106.36 124.508 102.742 124.508H46.1738C42.5392 124.508 39.5561 127.467 39.5312 131.091C39.5312 131.108 39.5312 131.116 39.5312 131.133V133.508C39.5312 133.491 39.5312 133.483 39.5312 133.466C39.5561 129.841 42.5309 126.883 46.1738 126.883H102.742C106.36 126.883 109.326 129.808 109.385 133.399C109.385 133.433 109.385 133.474 109.385 133.508V131.133C109.385 131.099 109.385 131.058 109.385 131.024Z" fill="#EFF2BD"/>
</g>
<path d="M96.3583 59.2956C97.1474 59.2956 97.7871 58.0944 97.7871 56.6126C97.7871 55.1308 97.1474 53.9295 96.3583 53.9295C95.5693 53.9295 94.9296 55.1308 94.9296 56.6126C94.9296 58.0944 95.5693 59.2956 96.3583 59.2956Z" fill="#454A4C"/>
<path d="M101.355 59.2956C102.144 59.2956 102.784 58.0944 102.784 56.6126C102.784 55.1308 102.144 53.9295 101.355 53.9295C100.566 53.9295 99.926 55.1308 99.926 56.6126C99.926 58.0944 100.566 59.2956 101.355 59.2956Z" fill="#454A4C"/>
<path d="M102.784 63.1458H106.845C108.44 63.1458 108.44 61.0543 110.028 61.0543C111.624 61.0543 111.624 63.1458 113.212 63.1458H113.872" stroke="#454A4C" stroke-width="2" stroke-miterlimit="10" stroke-linecap="round"/>
<path d="M116.504 65.9868L113.663 63.1453L116.571 60.2455" stroke="#454A4C" stroke-width="2" stroke-miterlimit="10" stroke-linecap="round"/>
<path d="M109.385 131.133V135.049C109.385 135.841 109.243 136.607 108.984 137.316C108.8 137.332 108.616 137.341 108.424 137.341H39.949C39.6817 136.624 39.5395 135.849 39.5395 135.049V131.133C39.5395 131.116 39.5395 131.108 39.5395 131.091H108.432C108.758 131.091 109.076 131.066 109.393 131.024C109.385 131.058 109.385 131.099 109.385 131.133Z" fill="#9FA52D"/>
<path d="M71.1241 135.666C70.8734 135.666 70.6643 135.458 70.6643 135.208V133.074C70.6643 131.666 71.8092 130.524 73.2213 130.524H77.9425C79.3543 130.524 80.4991 131.666 80.4991 133.074V135.208C80.4991 135.458 80.2904 135.666 80.0397 135.666H71.1241Z" fill="#848418"/>
<path d="M77.9338 130.841C79.1706 130.841 80.1649 131.841 80.1649 133.066V135.199C80.1649 135.274 80.1063 135.341 80.0228 135.341H71.1241C71.0489 135.341 70.9819 135.282 70.9819 135.199V133.066C70.9819 131.833 71.9846 130.841 73.213 130.841H77.9338ZM77.9338 130.199H73.213C71.6255 130.199 70.3384 131.491 70.3384 133.066V135.199C70.3384 135.633 70.6897 135.982 71.1241 135.982H80.0311C80.4659 135.982 80.8167 135.633 80.8167 135.199V133.066C80.8167 131.483 79.5214 130.199 77.9338 130.199Z" fill="#747B2B"/>
<path d="M38.3947 151.423H35.3867C31.7352 151.423 28.7439 148.44 28.7439 144.799V140.882C28.7439 140.382 28.8024 139.891 28.911 139.424C29.8218 139.574 30.7994 139.716 31.8355 139.849C31.7854 140.19 31.752 140.532 31.752 140.882V144.799C31.752 148.44 34.7433 151.423 38.3947 151.423Z" fill="#9FA52D"/>
<path d="M39.155 151.923C35.2196 151.923 32.011 148.723 32.011 144.799V140.882C32.011 136.957 35.2196 133.757 39.155 133.757H108.424C112.359 133.757 115.568 136.957 115.568 140.882V144.799C115.568 148.723 112.359 151.923 108.424 151.923H39.155Z" fill="#BCC745"/>
<path d="M108.424 134.258C112.075 134.258 115.067 137.241 115.067 140.882V144.799C115.067 148.44 112.075 151.423 108.424 151.423H39.155C35.5036 151.423 32.5123 148.44 32.5123 144.799V140.882C32.5123 137.241 35.5036 134.258 39.155 134.258H108.424ZM108.424 133.258H39.155C37.1163 133.258 35.2028 134.049 33.7573 135.499C32.3117 136.941 31.5096 138.857 31.5096 140.882V144.799C31.5096 146.832 32.3034 148.74 33.7573 150.181C35.2028 151.623 37.1246 152.423 39.155 152.423H108.424C110.463 152.423 112.376 151.632 113.822 150.181C115.267 148.74 116.07 146.823 116.07 144.799V140.882C116.07 138.849 115.276 136.941 113.822 135.499C112.376 134.049 110.463 133.258 108.424 133.258Z" fill="#747B2B"/>
<path d="M49.0568 141.757C46.9845 141.757 45.2967 140.074 45.2967 138.007V133.757H60.5876V138.007C60.5876 140.074 58.8995 141.757 56.8276 141.757H49.0568Z" fill="#848418"/>
<path d="M60.0863 134.258V138.007C60.0863 139.799 58.6238 141.257 56.8275 141.257H49.0567C47.26 141.257 45.798 139.799 45.798 138.007V134.258H60.0863ZM61.0889 133.258H60.0863H45.798H44.7953V134.258V138.007C44.7953 140.349 46.7088 142.257 49.0567 142.257H56.8275C59.1754 142.257 61.0889 140.349 61.0889 138.007V134.258V133.258Z" fill="#747B2B"/>
<path d="M91.6709 141.757C89.5986 141.757 87.9108 140.074 87.9108 138.007V133.757H103.202V138.007C103.202 140.074 101.514 141.757 99.4417 141.757H91.6709Z" fill="#848418"/>
<path d="M102.7 134.258V138.007C102.7 139.799 101.238 141.257 99.4417 141.257H91.6709C89.8742 141.257 88.4121 139.799 88.4121 138.007V134.258H102.7ZM103.703 133.258H102.7H88.4121H87.4094V134.258V138.007C87.4094 140.349 89.3229 142.257 91.6709 142.257H99.4417C101.79 142.257 103.703 140.349 103.703 138.007V134.258V133.258Z" fill="#747B2B"/>
<g opacity="0.4">
<path opacity="0.4" d="M108.424 134.424H39.155C35.5036 134.424 32.5123 137.407 32.5123 141.049V143.673C32.5123 140.032 35.5036 137.049 39.155 137.049H108.424C112.075 137.049 115.067 140.032 115.067 143.673V141.049C115.067 137.407 112.084 134.424 108.424 134.424Z" fill="#EFF2BD"/>
</g>
<path d="M108.424 145.174H39.155C35.9047 145.174 33.1724 142.807 32.6209 139.716C32.5541 140.099 32.5123 140.482 32.5123 140.882V144.799C32.5123 148.44 35.5036 151.423 39.155 151.423H108.424C112.075 151.423 115.067 148.44 115.067 144.799V140.882C115.067 140.482 115.025 140.099 114.958 139.716C114.407 142.807 111.683 145.174 108.424 145.174Z" fill="#9FA52D"/>
<path d="M66.7708 151.923V147.673C66.7708 145.607 68.4586 143.923 70.5308 143.923H78.3017C80.374 143.923 82.0617 145.607 82.0617 147.673V151.923H66.7708Z" fill="#848418"/>
<path d="M78.3017 144.424C80.098 144.424 81.5604 145.882 81.5604 147.673V151.423H67.2722V147.673C67.2722 145.882 68.7342 144.424 70.5309 144.424H78.3017ZM78.3017 143.424H70.5309C68.183 143.424 66.2695 145.332 66.2695 147.673V151.423V152.423H67.2722H81.5604H82.5631V151.423V147.673C82.5631 145.332 80.6579 143.424 78.3017 143.424Z" fill="#747B2B"/>
<path d="M89.231 116.025V73.6198C89.231 70.0118 91.487 67.0787 94.2611 67.0787H94.2777L95.3639 67.1455V116.017H89.231V116.025Z" fill="#EFF48D"/>
<path d="M94.2611 67.5119L94.9295 67.5537V115.592H89.6654V73.6197C89.6654 70.2451 91.7207 67.5119 94.2611 67.5119ZM94.286 66.6537H94.2611C92.757 66.6537 91.3532 67.4119 90.3256 68.7867C89.3478 70.0867 88.8045 71.8034 88.8045 73.6197V115.592V116.45H89.6654H94.9295H95.7901V115.592V67.5537V66.7453L94.9794 66.6952L94.311 66.6537H94.286Z" fill="#747B2B"/>
<path opacity="0.39" d="M89.3308 71.0698H94.9292" stroke="#747B2B" stroke-width="10.2982" stroke-miterlimit="10"/>
<path opacity="0.39" d="M89.3308 75.1782H94.9292" stroke="#747B2B" stroke-width="10.2982" stroke-miterlimit="10"/>
<path opacity="0.39" d="M89.3308 79.2944H94.9292" stroke="#747B2B" stroke-width="10.2982" stroke-miterlimit="10"/>
<path opacity="0.39" d="M89.3308 83.4023H94.9292" stroke="#747B2B" stroke-width="10.2982" stroke-miterlimit="10"/>
<path opacity="0.39" d="M89.3308 87.5107H94.9292" stroke="#747B2B" stroke-width="10.2982" stroke-miterlimit="10"/>
<path opacity="0.39" d="M89.3308 91.6269H94.9292" stroke="#747B2B" stroke-width="10.2982" stroke-miterlimit="10"/>
<path opacity="0.39" d="M89.3308 95.7349H94.9292" stroke="#747B2B" stroke-width="10.2982" stroke-miterlimit="10"/>
<path opacity="0.39" d="M89.3308 99.8511H94.9292" stroke="#747B2B" stroke-width="10.2982" stroke-miterlimit="10"/>
<path opacity="0.39" d="M89.3308 103.96H94.9292" stroke="#747B2B" stroke-width="10.2982" stroke-miterlimit="10"/>
<path opacity="0.39" d="M89.3308 108.076H94.9292" stroke="#747B2B" stroke-width="10.2982" stroke-miterlimit="10"/>
<path opacity="0.39" d="M89.3308 112.184H94.9292" stroke="#747B2B" stroke-width="10.2982" stroke-miterlimit="10"/>
<path d="M88.7879 111.651H80.4908V115.592H88.7879V111.651Z" fill="#9FA52D"/>
<path d="M133.525 152.039H137.234" stroke="#747B2B" stroke-width="10.883" stroke-miterlimit="10" stroke-linecap="round"/>
<path d="M19.3437 152.039H130.266" stroke="#747B2B" stroke-width="10.883" stroke-miterlimit="10" stroke-linecap="round"/>
<path d="M5.88271 152.039H15.0823" stroke="#747B2B" stroke-width="10.883" stroke-miterlimit="10" stroke-linecap="round"/>
<path d="M31.6927 9.7278C34.0398 9.7278 36.0845 10.1139 37.8267 10.8861C39.569 11.6583 40.9119 12.7683 41.8556 14.2162C42.7993 15.6641 43.2712 17.3532 43.2712 19.2837C43.2712 21.2142 42.7993 22.9034 41.8556 24.3513C40.9119 25.7991 39.569 26.9092 37.8267 27.6814C36.0845 28.4536 34.0398 28.8397 31.6927 28.8397H28.0267V35.0655H19.4608V9.7278H31.6927ZM31.1482 22.2519C32.3097 22.2519 33.1808 21.9985 33.7616 21.4917C34.3423 20.9608 34.6327 20.2248 34.6327 19.2837C34.6327 18.3426 34.3423 17.6187 33.7616 17.1119C33.1808 16.581 32.3097 16.3156 31.1482 16.3156H28.0267V22.2519H31.1482ZM68.2854 15.2659L60.1187 35.4637C59.0782 38.0457 57.7837 39.8555 56.235 40.8932C54.6864 41.9308 52.7869 42.4496 50.5365 42.4496C49.4234 42.4496 48.2982 42.2807 47.1609 41.9429C46.0479 41.6292 45.1646 41.2069 44.5113 40.676L47.2335 35.0655C47.6449 35.3792 48.1047 35.6326 48.6128 35.8256C49.1451 36.0187 49.6533 36.1152 50.1372 36.1152C51.0326 36.1152 51.7101 35.8498 52.1698 35.3189L43.8217 15.2659H52.2424L56.3439 25.8715L60.518 15.2659H68.2854ZM84.6985 34.3778C83.4644 35.0776 81.7827 35.4275 79.6533 35.4275C76.8706 35.4275 74.7291 34.7639 73.2289 33.4366C71.7286 32.0853 70.9785 30.0703 70.9785 27.3918V22.3243H68.2563V16.3518H70.9785V10.8137H79.1815V16.3518H83.2466V22.3243H79.1815V27.3194C79.1815 27.9227 79.3387 28.3932 79.6533 28.7311C79.9679 29.0689 80.3792 29.2378 80.8874 29.2378C81.5891 29.2378 82.2062 29.0568 82.7385 28.6949L84.6985 34.3778ZM100.559 14.9039C103.003 14.9039 104.963 15.6399 106.439 17.1119C107.939 18.5839 108.689 20.804 108.689 23.7721V35.0655H100.486V25.1838C100.486 22.9155 99.6756 21.7813 98.0544 21.7813C97.1349 21.7813 96.3848 22.1071 95.804 22.7586C95.2475 23.386 94.9692 24.3875 94.9692 25.7629V35.0655H86.7663V8.20753H94.9692V16.8585C96.4937 15.5555 98.3569 14.9039 100.559 14.9039ZM123.095 35.4275C120.893 35.4275 118.909 34.9931 117.143 34.1244C115.401 33.2315 114.033 32.0129 113.041 30.4685C112.049 28.9 111.553 27.1263 111.553 25.1476C111.553 23.1688 112.049 21.4073 113.041 19.8629C114.033 18.2944 115.401 17.0757 117.143 16.207C118.909 15.3383 120.893 14.9039 123.095 14.9039C125.322 14.9039 127.306 15.3383 129.048 16.207C130.814 17.0757 132.182 18.2944 133.15 19.8629C134.142 21.4073 134.638 23.1688 134.638 25.1476C134.638 27.1263 134.142 28.9 133.15 30.4685C132.182 32.0129 130.814 33.2315 129.048 34.1244C127.306 34.9931 125.322 35.4275 123.095 35.4275ZM123.095 29.0568C124.039 29.0568 124.813 28.719 125.418 28.0433C126.023 27.3435 126.326 26.3783 126.326 25.1476C126.326 23.9169 126.023 22.9637 125.418 22.2881C124.813 21.6124 124.039 21.2745 123.095 21.2745C122.152 21.2745 121.377 21.6124 120.772 22.2881C120.168 22.9637 119.865 23.9169 119.865 25.1476C119.865 26.3783 120.168 27.3435 120.772 28.0433C121.377 28.719 122.152 29.0568 123.095 29.0568ZM150.998 14.9039C153.442 14.9039 155.402 15.6399 156.878 17.1119C158.378 18.5839 159.128 20.804 159.128 23.7721V35.0655H150.925V25.1838C150.925 22.9155 150.115 21.7813 148.493 21.7813C147.574 21.7813 146.824 22.1071 146.243 22.7586C145.686 23.386 145.408 24.3875 145.408 25.7629V35.0655H137.205V15.2659H145.009V17.2205C145.783 16.4483 146.679 15.8692 147.695 15.4831C148.711 15.097 149.812 14.9039 150.998 14.9039Z" fill="#454A4C"/>
<path d="M229.355 46.2083H154.781C152.405 46.2083 150.478 48.1294 150.478 50.4987V104.846C150.478 107.216 152.405 109.136 154.781 109.136H229.355C231.731 109.136 233.657 107.216 233.657 104.846V50.4987C233.657 48.1294 231.731 46.2083 229.355 46.2083ZM222.184 49.0686H223.618C224.411 49.0686 225.053 49.7088 225.053 50.4987C225.053 51.2887 224.411 51.9289 223.618 51.9289H222.184C221.392 51.9289 220.75 51.2887 220.75 50.4987C220.75 49.7088 221.392 49.0686 222.184 49.0686ZM182.029 49.0686H216.448C217.24 49.0686 217.882 49.7088 217.882 50.4987C217.882 51.2887 217.24 51.9289 216.448 51.9289H182.029C181.237 51.9289 180.595 51.2887 180.595 50.4987C180.595 49.7088 181.237 49.0686 182.029 49.0686ZM174.859 49.0686H176.293C177.085 49.0686 177.727 49.7088 177.727 50.4987C177.727 51.2887 177.085 51.9289 176.293 51.9289H174.859C174.066 51.9289 173.424 51.2887 173.424 50.4987C173.424 49.7088 174.066 49.0686 174.859 49.0686ZM169.122 49.0686H170.556C171.348 49.0686 171.99 49.7088 171.99 50.4987C171.99 51.2887 171.348 51.9289 170.556 51.9289H169.122C168.33 51.9289 167.688 51.2887 167.688 50.4987C167.688 49.7088 168.33 49.0686 169.122 49.0686ZM163.386 49.0686C164.178 49.0686 164.82 49.7088 164.82 50.4987C164.82 51.2887 164.178 51.9289 163.386 51.9289C162.593 51.9289 161.951 51.2887 161.951 50.4987C161.951 49.7088 162.593 49.0686 163.386 49.0686ZM159.083 49.0686C159.875 49.0686 160.517 49.7088 160.517 50.4987C160.517 51.2887 159.875 51.9289 159.083 51.9289C158.291 51.9289 157.649 51.2887 157.649 50.4987C157.649 49.7088 158.291 49.0686 159.083 49.0686ZM154.781 49.0686C155.573 49.0686 156.215 49.7088 156.215 50.4987C156.215 51.2887 155.573 51.9289 154.781 51.9289C153.989 51.9289 153.347 51.2887 153.347 50.4987C153.347 49.7088 153.989 49.0686 154.781 49.0686ZM230.789 63.3704V104.846C230.789 105.636 230.147 106.276 229.355 106.276H192.068H154.781C153.989 106.276 153.347 105.636 153.347 104.846V63.3704V56.2193C153.347 55.4298 153.989 54.7892 154.781 54.7892H192.068H229.355C230.147 54.7892 230.789 55.4298 230.789 56.2193V63.3704ZM229.355 51.9289H227.921C227.129 51.9289 226.487 51.2883 226.487 50.4987C226.487 49.7088 227.129 49.0682 227.921 49.0682H229.355C230.147 49.0682 230.789 49.7088 230.789 50.4987C230.789 51.2887 230.147 51.9289 229.355 51.9289Z" fill="#D2DCF0"/>
<path d="M192.068 106.276H229.355C230.147 106.276 230.789 105.636 230.789 104.846V63.3704H192.068V106.276ZM213.58 70.5212V69.091C213.58 68.3011 214.222 67.6609 215.014 67.6609H225.053C225.845 67.6609 226.487 68.3011 226.487 69.091V70.5212V81.9627C226.487 82.7526 225.845 83.3932 225.053 83.3932H215.014C214.222 83.3932 213.58 82.7526 213.58 81.9627V70.5212ZM196.37 70.5212V69.091C196.37 68.3011 197.012 67.6609 197.805 67.6609H207.843C208.635 67.6609 209.278 68.3011 209.278 69.091V70.5212V81.9627C209.278 82.7526 208.635 83.3932 207.843 83.3932H197.804C197.013 83.3932 196.37 82.7526 196.37 81.9627V70.5212ZM197.804 87.6837H199.239H225.053C225.845 87.6837 226.487 88.3239 226.487 89.1138V100.555C226.487 101.345 225.845 101.986 225.053 101.986H199.239H197.804C197.013 101.986 196.37 101.345 196.37 100.555V89.1138C196.37 88.3239 197.013 87.6837 197.804 87.6837Z" fill="white"/>
<path d="M154.781 51.9286C155.573 51.9286 156.215 51.2883 156.215 50.4984C156.215 49.7085 155.573 49.0683 154.781 49.0683C153.989 49.0683 153.347 49.7085 153.347 50.4984C153.347 51.2883 153.989 51.9286 154.781 51.9286Z" fill="#FF6469"/>
<path d="M159.083 51.9286C159.875 51.9286 160.517 51.2883 160.517 50.4984C160.517 49.7085 159.875 49.0683 159.083 49.0683C158.291 49.0683 157.649 49.7085 157.649 50.4984C157.649 51.2883 158.291 51.9286 159.083 51.9286Z" fill="#FFE169"/>
<path d="M163.385 51.9286C164.178 51.9286 164.82 51.2883 164.82 50.4984C164.82 49.7085 164.178 49.0683 163.385 49.0683C162.593 49.0683 161.951 49.7085 161.951 50.4984C161.951 51.2883 162.593 51.9286 163.385 51.9286Z" fill="#87E1AA"/>
<path d="M169.122 51.9285H170.556C171.348 51.9285 171.99 51.2879 171.99 50.4984C171.99 49.7084 171.348 49.0678 170.556 49.0678H169.122C168.33 49.0678 167.688 49.7084 167.688 50.4984C167.688 51.2883 168.33 51.9285 169.122 51.9285Z" fill="#E4EAF6"/>
<path d="M174.859 51.9285H176.293C177.085 51.9285 177.727 51.2879 177.727 50.4984C177.727 49.7084 177.085 49.0678 176.293 49.0678H174.859C174.066 49.0678 173.424 49.7084 173.424 50.4984C173.424 51.2883 174.066 51.9285 174.859 51.9285Z" fill="#E4EAF6"/>
<path d="M222.184 51.9285H223.618C224.41 51.9285 225.053 51.2879 225.053 50.4984C225.053 49.7084 224.41 49.0678 223.618 49.0678H222.184C221.392 49.0678 220.75 49.7084 220.75 50.4984C220.75 51.2883 221.392 51.9285 222.184 51.9285Z" fill="#E4EAF6"/>
<path d="M229.355 49.0683H227.921C227.129 49.0683 226.487 49.7085 226.487 50.4984C226.487 51.2883 227.129 51.9286 227.921 51.9286H229.355C230.147 51.9286 230.789 51.2883 230.789 50.4984C230.789 49.7085 230.147 49.0683 229.355 49.0683Z" fill="#E4EAF6"/>
<path d="M182.029 51.9285H216.448C217.24 51.9285 217.882 51.2879 217.882 50.4984C217.882 49.7084 217.24 49.0678 216.448 49.0678H182.029C181.237 49.0678 180.595 49.7084 180.595 50.4984C180.595 51.2883 181.237 51.9285 182.029 51.9285Z" fill="#E4EAF6"/>
<path d="M229.355 54.7889H192.068V63.3702H230.789V56.2195C230.789 55.4295 230.147 54.7889 229.355 54.7889ZM202.107 60.5099H196.37C195.578 60.5099 194.936 59.8693 194.936 59.0794C194.936 58.2898 195.578 57.6492 196.37 57.6492H202.107C202.899 57.6492 203.541 58.2898 203.541 59.0794C203.541 59.8693 202.899 60.5099 202.107 60.5099ZM213.58 60.5099H207.843C207.051 60.5099 206.409 59.8693 206.409 59.0794C206.409 58.2898 207.051 57.6492 207.843 57.6492H213.58C214.372 57.6492 215.014 58.2898 215.014 59.0794C215.014 59.8693 214.372 60.5099 213.58 60.5099ZM225.053 60.5099H219.316C218.524 60.5099 217.882 59.8693 217.882 59.0794C217.882 58.2898 218.524 57.6492 219.316 57.6492H225.053C225.845 57.6492 226.487 58.2898 226.487 59.0794C226.487 59.8693 225.845 60.5099 225.053 60.5099Z" fill="#FF6469"/>
<path d="M202.107 57.6497H196.37C195.578 57.6497 194.936 58.29 194.936 59.0799C194.936 59.8698 195.578 60.51 196.37 60.51H202.107C202.899 60.51 203.541 59.8698 203.541 59.0799C203.541 58.29 202.899 57.6497 202.107 57.6497Z" fill="#D2555F"/>
<path d="M213.58 57.6497H207.843C207.051 57.6497 206.409 58.29 206.409 59.0799C206.409 59.8698 207.051 60.51 207.843 60.51H213.58C214.371 60.51 215.014 59.8698 215.014 59.0799C215.014 58.29 214.371 57.6497 213.58 57.6497Z" fill="#D2555F"/>
<path d="M225.053 57.6497H219.316C218.524 57.6497 217.882 58.29 217.882 59.0799C217.882 59.8698 218.524 60.51 219.316 60.51H225.053C225.845 60.51 226.487 59.8698 226.487 59.0799C226.487 58.29 225.845 57.6497 225.053 57.6497Z" fill="#D2555F"/>
<path d="M197.804 83.3926H207.843C208.635 83.3926 209.277 82.7523 209.277 81.9624V70.5209C209.277 71.3108 208.635 71.951 207.843 71.951H197.804C197.012 71.951 196.37 71.3108 196.37 70.5209V81.9624C196.37 82.7523 197.012 83.3926 197.804 83.3926Z" fill="#DEE3ED"/>
<path d="M215.014 83.3926H225.053C225.845 83.3926 226.487 82.7523 226.487 81.9624V70.5209C226.487 71.3108 225.845 71.951 225.053 71.951H215.014C214.222 71.951 213.58 71.3108 213.58 70.5209V81.9624C213.58 82.7523 214.222 83.3926 215.014 83.3926Z" fill="#DEE3ED"/>
<path d="M197.804 71.9514H207.843C208.635 71.9514 209.277 71.3108 209.277 70.5209V69.0907C209.277 68.3008 208.635 67.6606 207.843 67.6606H197.804C197.012 67.6606 196.37 68.3008 196.37 69.0907V70.5209C196.37 71.3108 197.012 71.9514 197.804 71.9514Z" fill="#FF969B"/>
<path d="M215.014 71.9514H225.053C225.845 71.9514 226.487 71.3108 226.487 70.5209V69.0907C226.487 68.3008 225.845 67.6606 225.053 67.6606H215.014C214.222 67.6606 213.58 68.3008 213.58 69.0907V70.5209C213.58 71.3108 214.222 71.9514 215.014 71.9514Z" fill="#A0DCF0"/>
<path d="M200.673 89.1139V100.555C200.673 101.345 200.03 101.986 199.239 101.986H225.053C225.845 101.986 226.487 101.345 226.487 100.555V89.1139C226.487 88.324 225.845 87.6837 225.053 87.6837H199.239C200.03 87.6837 200.673 88.324 200.673 89.1139Z" fill="#DEE3ED"/>
<path d="M197.804 101.986H199.238C200.031 101.986 200.673 101.345 200.673 100.555V89.1138C200.673 88.3239 200.031 87.6833 199.238 87.6833H197.804C197.012 87.6833 196.37 88.3239 196.37 89.1138V100.555C196.37 101.345 197.012 101.986 197.804 101.986Z" fill="#91E6BE"/>
<path d="M192.068 54.7889H154.781C153.989 54.7889 153.347 55.4295 153.347 56.2195V63.3702V104.846C153.347 105.636 153.989 106.276 154.781 106.276H192.068V63.3702V54.7889ZM164.82 59.0794H187.766C188.557 59.0794 189.2 59.72 189.2 60.5099C189.2 61.2994 188.557 61.94 187.766 61.94H164.82C164.028 61.94 163.386 61.2994 163.386 60.5099C163.386 59.72 164.028 59.0794 164.82 59.0794ZM157.649 59.0794H159.083C159.875 59.0794 160.517 59.72 160.517 60.5099C160.517 61.2994 159.875 61.94 159.083 61.94H157.649C156.857 61.94 156.215 61.2994 156.215 60.5099C156.215 59.72 156.857 59.0794 157.649 59.0794ZM171.99 67.6606H167.688C166.896 67.6606 166.254 67.0204 166.254 66.2305C166.254 65.4406 166.896 64.8003 167.688 64.8003H171.99C172.782 64.8003 173.425 65.4406 173.425 66.2305C173.425 67.0204 172.782 67.6606 171.99 67.6606ZM173.425 71.9515C173.425 72.741 172.782 73.3816 171.99 73.3816H167.688C166.896 73.3816 166.254 72.741 166.254 71.9515C166.254 71.1615 166.896 70.5209 167.688 70.5209H171.99C172.782 70.5209 173.425 71.1615 173.425 71.9515ZM157.649 81.9625H159.083C159.875 81.9625 160.517 82.6031 160.517 83.393C160.517 84.1826 159.875 84.8232 159.083 84.8232H157.649C156.857 84.8232 156.215 84.1826 156.215 83.393C156.215 82.6031 156.857 81.9625 157.649 81.9625ZM156.215 77.672C156.215 76.8821 156.857 76.2419 157.649 76.2419H159.083C159.875 76.2419 160.517 76.8821 160.517 77.672C160.517 78.462 159.875 79.1022 159.083 79.1022H157.649C156.857 79.1022 156.215 78.462 156.215 77.672ZM160.517 87.6835H161.951C162.744 87.6835 163.386 88.3237 163.386 89.1136C163.386 89.9035 162.744 90.5438 161.951 90.5438H160.517C159.725 90.5438 159.083 89.9035 159.083 89.1136C159.083 88.3237 159.725 87.6835 160.517 87.6835ZM161.951 73.3816H160.517C159.725 73.3816 159.083 72.741 159.083 71.9511C159.083 71.1615 159.725 70.5209 160.517 70.5209H161.951C162.744 70.5209 163.386 71.1615 163.386 71.9511C163.386 72.741 162.744 73.3816 161.951 73.3816ZM161.951 67.6606H160.517C159.725 67.6606 159.083 67.0204 159.083 66.2305C159.083 65.4406 159.725 64.8003 160.517 64.8003H161.951C162.744 64.8003 163.386 65.4406 163.386 66.2305C163.386 67.0204 162.744 67.6606 161.951 67.6606ZM159.083 101.985H157.649C156.857 101.985 156.215 101.345 156.215 100.555C156.215 99.7652 156.857 99.1246 157.649 99.1246H159.083C159.875 99.1246 160.517 99.7652 160.517 100.555C160.517 101.345 159.875 101.985 159.083 101.985ZM161.951 96.2643H160.517C159.725 96.2643 159.083 95.6241 159.083 94.8342C159.083 94.0443 159.725 93.404 160.517 93.404H161.951C162.744 93.404 163.386 94.0443 163.386 94.8342C163.386 95.6241 162.744 96.2643 161.951 96.2643ZM187.766 101.985H164.82C164.028 101.985 163.386 101.345 163.386 100.555C163.386 99.7652 164.028 99.1246 164.82 99.1246H187.766C188.557 99.1246 189.2 99.7652 189.2 100.555C189.2 101.345 188.557 101.985 187.766 101.985ZM167.688 93.404H171.99C172.782 93.404 173.425 94.0443 173.425 94.8342C173.425 95.6241 172.782 96.2643 171.99 96.2643H167.688C166.896 96.2643 166.254 95.6241 166.254 94.8342C166.254 94.0443 166.896 93.404 167.688 93.404ZM166.254 89.1136C166.254 88.3237 166.896 87.6835 167.688 87.6835H171.99C172.782 87.6835 173.425 88.3237 173.425 89.1136C173.425 89.9035 172.782 90.5438 171.99 90.5438H167.688C166.896 90.5438 166.254 89.9035 166.254 89.1136ZM187.766 96.2643H177.727C176.935 96.2643 176.293 95.6241 176.293 94.8342C176.293 94.0443 176.935 93.404 177.727 93.404H187.766C188.557 93.404 189.2 94.0443 189.2 94.8342C189.2 95.6241 188.557 96.2643 187.766 96.2643ZM187.766 90.5438H177.727C176.935 90.5438 176.293 89.9031 176.293 89.1136C176.293 88.3237 176.935 87.6831 177.727 87.6831H187.766C188.557 87.6831 189.2 88.3237 189.2 89.1136C189.2 89.9031 188.557 90.5438 187.766 90.5438ZM187.766 84.8232H164.82C164.028 84.8232 163.386 84.1826 163.386 83.3926C163.386 82.6031 164.028 81.9625 164.82 81.9625H187.766C188.557 81.9625 189.2 82.6031 189.2 83.3926C189.2 84.1826 188.557 84.8232 187.766 84.8232ZM187.766 79.1022H164.82C164.028 79.1022 163.386 78.462 163.386 77.672C163.386 76.8821 164.028 76.2419 164.82 76.2419H187.766C188.557 76.2419 189.2 76.8821 189.2 77.672C189.2 78.462 188.557 79.1022 187.766 79.1022ZM187.766 73.3816H177.727C176.935 73.3816 176.293 72.741 176.293 71.9511C176.293 71.1615 176.935 70.5209 177.727 70.5209H187.766C188.557 70.5209 189.2 71.1615 189.2 71.9511C189.2 72.741 188.557 73.3816 187.766 73.3816ZM187.766 67.6606H177.727C176.935 67.6606 176.293 67.0204 176.293 66.2305C176.293 65.4406 176.935 64.8003 177.727 64.8003H187.766C188.557 64.8003 189.2 65.4406 189.2 66.2305C189.2 67.0204 188.557 67.6606 187.766 67.6606Z" fill="#464655"/>
<path d="M164.82 61.9401H187.765C188.557 61.9401 189.2 61.2999 189.2 60.51C189.2 59.7201 188.557 59.0798 187.765 59.0798H164.82C164.028 59.0798 163.386 59.7201 163.386 60.51C163.386 61.2999 164.028 61.9401 164.82 61.9401Z" fill="#FFE169"/>
<path d="M171.99 64.8006H167.688C166.896 64.8006 166.254 65.4412 166.254 66.2308C166.254 67.0207 166.896 67.6613 167.688 67.6613H171.99C172.782 67.6613 173.424 67.0207 173.424 66.2308C173.424 65.4408 172.782 64.8006 171.99 64.8006Z" fill="#91E6BE"/>
<path d="M171.99 70.5209H167.688C166.896 70.5209 166.254 71.1615 166.254 71.9514C166.254 72.7409 166.896 73.3815 167.688 73.3815H171.99C172.782 73.3815 173.424 72.7409 173.424 71.9514C173.424 71.1615 172.782 70.5209 171.99 70.5209Z" fill="#91E6BE"/>
<path d="M187.765 76.242H164.82C164.028 76.242 163.386 76.8822 163.386 77.6721C163.386 78.462 164.028 79.1023 164.82 79.1023H187.765C188.557 79.1023 189.2 78.462 189.2 77.6721C189.2 76.8822 188.557 76.242 187.765 76.242Z" fill="#FFE169"/>
<path d="M187.765 81.9626H164.82C164.028 81.9626 163.386 82.6032 163.386 83.3932C163.386 84.1827 164.028 84.8233 164.82 84.8233H187.765C188.557 84.8233 189.2 84.1827 189.2 83.3932C189.2 82.6032 188.557 81.9626 187.765 81.9626Z" fill="white"/>
<path d="M187.765 64.8006H177.727C176.935 64.8006 176.292 65.4412 176.292 66.2308C176.292 67.0207 176.935 67.6613 177.727 67.6613H187.765C188.557 67.6613 189.2 67.0207 189.2 66.2308C189.2 65.4408 188.557 64.8006 187.765 64.8006Z" fill="white"/>
<path d="M187.765 70.5209H177.727C176.935 70.5209 176.292 71.1615 176.292 71.9514C176.292 72.7409 176.935 73.3815 177.727 73.3815H187.765C188.557 73.3815 189.2 72.7409 189.2 71.9514C189.2 71.1615 188.557 70.5209 187.765 70.5209Z" fill="white"/>
<path d="M187.765 87.6837H177.727C176.935 87.6837 176.292 88.324 176.292 89.1139C176.292 89.9038 176.935 90.544 177.727 90.544H187.765C188.557 90.544 189.2 89.9038 189.2 89.1139C189.2 88.324 188.557 87.6837 187.765 87.6837Z" fill="white"/>
<path d="M187.765 93.4041H177.727C176.935 93.4041 176.292 94.0443 176.292 94.8342C176.292 95.6241 176.935 96.2647 177.727 96.2647H187.765C188.557 96.2647 189.2 95.6241 189.2 94.8342C189.2 94.0443 188.557 93.4041 187.765 93.4041Z" fill="white"/>
<path d="M167.688 90.544H171.99C172.782 90.544 173.424 89.9034 173.424 89.1138C173.424 88.3239 172.782 87.6833 171.99 87.6833H167.688C166.896 87.6833 166.254 88.3239 166.254 89.1138C166.254 89.9034 166.896 90.544 167.688 90.544Z" fill="#91E6BE"/>
<path d="M167.688 96.2647H171.99C172.782 96.2647 173.424 95.6241 173.424 94.8342C173.424 94.0447 172.782 93.4041 171.99 93.4041H167.688C166.896 93.4041 166.254 94.0447 166.254 94.8342C166.254 95.6241 166.896 96.2647 167.688 96.2647Z" fill="#91E6BE"/>
<path d="M187.765 99.1251H164.82C164.028 99.1251 163.386 99.7653 163.386 100.555C163.386 101.345 164.028 101.985 164.82 101.985H187.765C188.557 101.985 189.2 101.345 189.2 100.555C189.2 99.7653 188.557 99.1251 187.765 99.1251Z" fill="#FFE169"/>
<path d="M157.649 61.9401H159.083C159.875 61.9401 160.517 61.2999 160.517 60.51C160.517 59.7201 159.875 59.0798 159.083 59.0798H157.649C156.857 59.0798 156.215 59.7201 156.215 60.51C156.215 61.2999 156.857 61.9401 157.649 61.9401Z" fill="#FF6469"/>
<path d="M161.951 64.8006H160.517C159.725 64.8006 159.083 65.4412 159.083 66.2308C159.083 67.0207 159.725 67.6613 160.517 67.6613H161.951C162.744 67.6613 163.386 67.0207 163.386 66.2308C163.386 65.4408 162.744 64.8006 161.951 64.8006Z" fill="#FF6469"/>
<path d="M161.951 70.5209H160.517C159.725 70.5209 159.083 71.1615 159.083 71.9514C159.083 72.7409 159.725 73.3815 160.517 73.3815H161.951C162.744 73.3815 163.386 72.7409 163.386 71.9514C163.386 71.1615 162.744 70.5209 161.951 70.5209Z" fill="#FF6469"/>
<path d="M157.649 79.1023H159.083C159.875 79.1023 160.517 78.462 160.517 77.6721C160.517 76.8822 159.875 76.242 159.083 76.242H157.649C156.857 76.242 156.215 76.8822 156.215 77.6721C156.215 78.462 156.857 79.1023 157.649 79.1023Z" fill="#FF6469"/>
<path d="M157.649 84.8233H159.083C159.875 84.8233 160.517 84.1827 160.517 83.3928C160.517 82.6032 159.875 81.9626 159.083 81.9626H157.649C156.857 81.9626 156.215 82.6032 156.215 83.3928C156.215 84.1827 156.857 84.8233 157.649 84.8233Z" fill="#FF6469"/>
<path d="M160.517 90.544H161.951C162.744 90.544 163.386 89.9034 163.386 89.1138C163.386 88.3239 162.744 87.6833 161.951 87.6833H160.517C159.725 87.6833 159.083 88.3239 159.083 89.1138C159.083 89.9034 159.725 90.544 160.517 90.544Z" fill="#FF6469"/>
<path d="M161.951 93.4041H160.517C159.725 93.4041 159.083 94.0443 159.083 94.8342C159.083 95.6241 159.725 96.2647 160.517 96.2647H161.951C162.744 96.2647 163.386 95.6241 163.386 94.8342C163.386 94.0443 162.744 93.4041 161.951 93.4041Z" fill="#FF6469"/>
<path d="M159.083 99.1251H157.649C156.857 99.1251 156.215 99.7653 156.215 100.555C156.215 101.345 156.857 101.985 157.649 101.985H159.083C159.875 101.985 160.517 101.345 160.517 100.555C160.517 99.7653 159.875 99.1251 159.083 99.1251Z" fill="#FF6469"/>
</g>
<defs>
<clipPath id="clip0_1_91">
<path d="M0 20C0 8.9543 8.9543 0 20 0H225C236.046 0 245 8.95431 245 20V161H0V20Z" fill="white"/>
</clipPath>
</defs>
</svg>
